<svg xmlns="http://www.w3.org/2000/svg" xmlns:xl="http://www.w3.org/1999/xlink" width="597.236" height="545.573" version="1.1" viewBox="-584.925 -12.438 597.236 545.573"><defs><marker id="FilledArrow_Marker" stroke-linejoin="miter" stroke-miterlimit="10" color="#000" markerHeight="8" markerUnits="strokeWidth" markerWidth="10" orient="auto" overflow="visible" viewBox="-1 -4 10 8"><g><path fill="currentColor" stroke="currentColor" stroke-width="1" d="M 8 0 L 0 -3 L 0 3 Z"/></g></marker></defs><g id="4_State_(two_stage)" fill="none" fill-opacity="1" stroke="none" stroke-dasharray="none" stroke-opacity="1"><title>4 State (two stage)</title><rect width="597.236" height="545.573" x="-584.925" y="-12.438" fill="#fff"/><g id="4_State_(two_stage)_Layer_1"><title>Layer 1</title><g id="Group_71"><g id="Graphic_7"><circle cx="-432.284" cy="96.378" r="85.04" fill="#fff"/><circle cx="-432.284" cy="96.378" r="85.04" stroke="gray" stroke-linecap="round" stroke-linejoin="round" stroke-width="1"/></g><g id="Graphic_11"><text fill="#000" transform="translate(-463.41556 26.438162)"><tspan x="0" y="15" fill="#000" font-family="Helvetica Neue" font-size="16">state: 00</tspan></text></g><g id="Line_12"><line x1="-502.688" x2="-360.76" y1="49.993" y2="49.993" stroke="#000" stroke-linecap="round" stroke-linejoin="round" stroke-width="1"/></g><g id="Graphic_21"><circle cx="-147.402" cy="96.378" r="85.04" fill="#fff"/><circle cx="-147.402" cy="96.378" r="85.04" stroke="gray" stroke-linecap="round" stroke-linejoin="round" stroke-width="1"/></g><g id="Graphic_20"><text fill="#000" transform="translate(-178.53366 26.438162)"><tspan x="0" y="15" fill="#000" font-family="Helvetica Neue" font-size="16">state: 01</tspan></text></g><g id="Line_19"><line x1="-217.806" x2="-75.878" y1="49.993" y2="49.993" stroke="#000" stroke-linecap="round" stroke-linejoin="round" stroke-width="1"/></g><g id="Graphic_29"><circle cx="-432.284" cy="379.843" r="85.04" fill="#fff"/><circle cx="-432.284" cy="379.843" r="85.04" stroke="gray" stroke-linecap="round" stroke-linejoin="round" stroke-width="1"/></g><g id="Graphic_28"><text fill="#000" transform="translate(-463.41556 309.90274)"><tspan x="0" y="15" fill="#000" font-family="Helvetica Neue" font-size="16">state: 10</tspan></text></g><g id="Line_27"><line x1="-502.688" x2="-360.76" y1="333.457" y2="333.457" stroke="#000" stroke-linecap="round" stroke-linejoin="round" stroke-width="1"/></g><g id="Graphic_25"><circle cx="-147.402" cy="379.843" r="85.04" fill="#fff"/><circle cx="-147.402" cy="379.843" r="85.04" stroke="gray" stroke-linecap="round" stroke-linejoin="round" stroke-width="1"/></g><g id="Graphic_24"><text fill="#000" transform="translate(-178.53366 309.90274)"><tspan x="0" y="15" fill="#000" font-family="Helvetica Neue" font-size="16">state: 11</tspan></text></g><g id="Line_23"><line x1="-217.806" x2="-75.878" y1="333.457" y2="333.457" stroke="#000" stroke-linecap="round" stroke-linejoin="round" stroke-width="1"/></g><g id="Line_32"><path stroke="#000" stroke-linecap="round" stroke-linejoin="round" stroke-width="1" marker-end="url(#FilledArrow_Marker)" d="M -492.4153 156.5098 C -492.4153 156.5098 -542.86484 203.18542 -549.9213 266.4567 C -555.28596 314.55894 -533.6522 355.05677 -522.9706 371.71033"/></g><g id="Graphic_35"><rect width="25.392" height="28.448" x="-539.448" y="186.402" fill="#fff"/><text fill="#000" transform="translate(-534.4476 191.40244)"><tspan x="0" y="15" fill="#000" font-family="Helvetica Neue" font-size="16">fill</tspan></text></g><g id="Graphic_36"><text fill="#000" transform="translate(-510.9055 362.16536)"><tspan x="0" y="15" fill="#000" font-family="Helvetica Neue" font-size="16">notify</tspan> <tspan x="5.328" y="33.448" fill="#000" font-family="Helvetica Neue" font-size="16">sink</tspan></text></g><g id="Line_37"><line x1="-232.441" x2="-337.344" y1="379.843" y2="379.843" stroke="#000" stroke-linecap="round" stroke-linejoin="round" stroke-width="1" marker-end="url(#FilledArrow_Marker)"/></g><g id="Graphic_38"><rect width="45.856" height="28.448" x="-312.363" y="365.619" fill="#fff"/><text fill="#000" transform="translate(-307.36325 370.61853)"><tspan x="0" y="15" fill="#000" font-family="Helvetica Neue" font-size="16">drain</tspan></text></g><g id="Graphic_39"><text fill="#000" transform="translate(-401.9677 362.16536)"><tspan x="4.448" y="15" fill="#000" font-family="Helvetica Neue" font-size="16">notify</tspan> <tspan x="0" y="33.448" fill="#000" font-family="Helvetica Neue" font-size="16">source</tspan></text></g><g id="Line_40"><path stroke="#000" stroke-linecap="round" stroke-linejoin="round" stroke-width="1" marker-end="url(#FilledArrow_Marker)" d="M -517.3229 96.37796 C -527.2441 102.04725 -572.59844 90.70866 -566.92915 50.992843 C -562.0006 16.466453 -514.2267 12.001619 -497.56734 27.788453"/></g><g id="Graphic_41"><rect width="45.28" height="28.448" x="-558.736" y="6.172" fill="#fff"/><text fill="#000" transform="translate(-553.7357 11.17201)"><tspan x="0" y="15" fill="#000" font-family="Helvetica Neue" font-size="16">push</tspan></text></g><g id="Line_43"><line x1="-232.441" x2="-337.344" y1="96.378" y2="96.378" stroke="#000" stroke-linecap="round" stroke-linejoin="round" stroke-width="1" marker-end="url(#FilledArrow_Marker)"/></g><g id="Graphic_42"><rect width="45.856" height="28.448" x="-312.363" y="82.154" fill="#fff"/><text fill="#000" transform="translate(-307.36325 87.15396)"><tspan x="0" y="15" fill="#000" font-family="Helvetica Neue" font-size="16">drain</tspan></text></g><g id="Graphic_44"><text fill="#000" transform="translate(-403.189 73.0315)"><tspan x="4.448" y="15" fill="#000" font-family="Helvetica Neue" font-size="16">notify</tspan> <tspan x="0" y="33.448" fill="#000" font-family="Helvetica Neue" font-size="16">source</tspan></text></g><g id="Line_46"><path stroke="#000" stroke-linecap="round" stroke-linejoin="round" stroke-width="1" marker-end="url(#FilledArrow_Marker)" d="M -87.26973 156.5098 C -87.26973 156.5098 -29.73359 207.24857 -22.677166 272.126 C -17.272523 321.81677 -43.427355 361.905 -55.96825 377.9501"/></g><g id="Graphic_45"><rect width="25.392" height="28.448" x="-62.363" y="187.293" fill="#fff"/><text fill="#000" transform="translate(-57.36286 192.2931)"><tspan x="0" y="15" fill="#000" font-family="Helvetica Neue" font-size="16">fill</tspan></text></g><g id="Graphic_47"><text fill="#000" transform="translate(-106.7702 362.16536)"><tspan x="0" y="15" fill="#000" font-family="Helvetica Neue" font-size="16">notify</tspan> <tspan x="5.328" y="33.448" fill="#000" font-family="Helvetica Neue" font-size="16">sink</tspan></text></g><g id="Graphic_48"><text fill="#000" transform="translate(-510.9055 84.37008)"><tspan x="0" y="15" fill="#000" font-family="Helvetica Neue" font-size="16">return</tspan></text></g><g id="Line_50"><path stroke="#000" stroke-linecap="round" stroke-linejoin="round" stroke-width="1" marker-end="url(#FilledArrow_Marker)" d="M -62.36221 102.04725 C -34.01575 119.05512 11.338583 73.70079 -11.338583 34.01575 C -30.27756 .8725395 -72.94204 11.226093 -84.49014 26.746603"/></g><g id="Graphic_49"><rect width="45.28" height="46.896" x="-54.764" y="4.57" fill="#fff"/><text fill="#000" transform="translate(-49.76432 9.569851)"><tspan x="0" y="15" fill="#000" font-family="Helvetica Neue" font-size="16">push</tspan> <tspan x="4.896" y="33.448" fill="#000" font-family="Helvetica Neue" font-size="16">pull</tspan></text></g><g id="Graphic_51"><text fill="#000" transform="translate(-109.4422 84.37008)"><tspan x="0" y="15" fill="#000" font-family="Helvetica Neue" font-size="16">return</tspan></text></g><g id="Line_52"><line x1="-372.152" x2="-214.564" y1="319.711" y2="163.48" stroke="#000" stroke-linecap="round" stroke-linejoin="round" stroke-width="1" marker-end="url(#FilledArrow_Marker)"/></g><g id="Graphic_53"><rect width="45.28" height="46.896" x="-306.592" y="208.822" fill="#fff"/><text fill="#000" transform="translate(-301.59157 213.822)"><tspan x="0" y="15" fill="#000" font-family="Helvetica Neue" font-size="16">push</tspan> <tspan x="4.896" y="33.448" fill="#000" font-family="Helvetica Neue" font-size="16">pull</tspan></text></g><g id="Graphic_54"><text fill="#000" transform="translate(-408.8583 333.71737)"><tspan x="0" y="15" fill="#000" font-family="Helvetica Neue" font-size="16">move</tspan></text></g><g id="Line_55"><line x1="-207.533" x2="-253.787" y1="319.711" y2="273.457" stroke="#000" stroke-linecap="round" stroke-linejoin="round" stroke-width="1" marker-end="url(#FilledArrow_Marker)"/></g><g id="Line_57"><line x1="-334.313" x2="-305.891" y1="225.149" y2="192.289" stroke="#000" stroke-linecap="round" stroke-linejoin="round" stroke-width="1"/></g><g id="Graphic_58"><text fill="#000" transform="translate(-437.20474 135.3937)"><tspan x="0" y="15" fill="#000" font-family="Helvetica Neue" font-size="16">sink wait</tspan></text></g><g id="Line_59"><line x1="-372.152" x2="-325.898" y1="156.51" y2="202.763" stroke="#000" stroke-linecap="round" stroke-linejoin="round" stroke-width="1" marker-end="url(#FilledArrow_Marker)"/></g><g id="Line_60"><line x1="-271.951" x2="-243.528" y1="281.842" y2="248.982" stroke="#000" stroke-linecap="round" stroke-linejoin="round" stroke-width="1"/></g><g id="Graphic_61"><text fill="#000" transform="translate(-210.43308 339.4882)"><tspan x="0" y="15" fill="#000" font-family="Helvetica Neue" font-size="16">source wait</tspan></text></g><g id="Graphic_62"><rect width="35.488" height="28.448" x="-367.835" y="164.346" fill="#fff"/><text fill="#000" transform="translate(-362.8352 169.34621)"><tspan x="0" y="15" fill="#000" font-family="Helvetica Neue" font-size="16">pull</tspan></text></g><g id="Graphic_63"><rect width="45.28" height="28.448" x="-254.121" y="281.539" fill="#fff"/><text fill="#000" transform="translate(-249.1212 286.53892)"><tspan x="0" y="15" fill="#000" font-family="Helvetica Neue" font-size="16">push</tspan></text></g><g id="Line_67"><path stroke="#000" stroke-linecap="round" stroke-linejoin="round" stroke-width="1" marker-end="url(#FilledArrow_Marker)" d="M -147.40158 464.88195 C -141.73229 487.55907 -175.74804 515.9055 -204.0945 504.56694 C -226.80488 495.4828 -224.04237 460.92575 -215.06817 446.3961"/></g><g id="Graphic_66"><rect width="35.488" height="28.448" x="-187.764" y="487.679" fill="#fff"/><text fill="#000" transform="translate(-182.76445 492.67925)"><tspan x="0" y="15" fill="#000" font-family="Helvetica Neue" font-size="16">pull</tspan></text></g><g id="Graphic_68"><text fill="#000" transform="translate(-170.74804 441.4339)"><tspan x="0" y="15" fill="#000" font-family="Helvetica Neue" font-size="16">return</tspan></text></g></g></g></g></svg>