<svg xmlns="http://www.w3.org/2000/svg" xmlns:xl="http://www.w3.org/1999/xlink" width="791.366" height="742.893" version="1.1" viewBox="-561.76 -584.437 791.366 742.893"><defs><marker id="FilledArrow_Marker" stroke-linejoin="miter" stroke-miterlimit="10" color="#000" markerHeight="8" markerUnits="strokeWidth" markerWidth="10" orient="auto" overflow="visible" viewBox="-1 -4 10 8"><g><path fill="currentColor" stroke="currentColor" stroke-width="1" d="M 8 0 L 0 -3 L 0 3 Z"/></g></marker><marker id="FilledArrow_Marker_2" stroke-linejoin="miter" stroke-miterlimit="10" color="#ff2600" markerHeight="8" markerUnits="strokeWidth" markerWidth="10" orient="auto" overflow="visible" viewBox="-1 -4 10 8"><g><path fill="currentColor" stroke="currentColor" stroke-width="1" d="M 8 0 L 0 -3 L 0 3 Z"/></g></marker><marker id="FilledArrow_Marker_3" stroke-linejoin="miter" stroke-miterlimit="10" color="#ff2600" markerHeight="8" markerUnits="strokeWidth" markerWidth="10" orient="auto" overflow="visible" viewBox="-1 -4 10 8"><g><path fill="currentColor" stroke="currentColor" stroke-width="1" d="M 8 0 L 0 -3 L 0 3 Z"/></g></marker></defs><g id="4_State_(two_stage)_with_stop" fill="none" fill-opacity="1" stroke="none" stroke-dasharray="none" stroke-opacity="1"><title>4 State (two stage) with stop</title><rect width="779.461" height="734.456" x="-561.76" y="-576" fill="#fff"/><g id="4_State_(two_stage)_with_stop_Layer_1"><title>Layer 1</title><g id="Graphic_7"><circle cx="-409.118" cy="-283.465" r="85.04" fill="#fff"/><circle cx="-409.118" cy="-283.465" r="85.04" stroke="gray" stroke-linecap="round" stroke-linejoin="round" stroke-width="1"/></g><g id="Graphic_11"><text fill="#000" transform="translate(-440.24997 -353.40437)"><tspan x="0" y="15" fill="#000" font-family="Helvetica Neue" font-size="16">state: 00</tspan></text></g><g id="Line_12"><line x1="-479.522" x2="-337.594" y1="-329.85" y2="-329.85" stroke="#000" stroke-linecap="round" stroke-linejoin="round" stroke-width="1"/></g><g id="Graphic_21"><circle cx="-124.236" cy="-283.465" r="85.04" fill="#fff"/><circle cx="-124.236" cy="-283.465" r="85.04" stroke="gray" stroke-linecap="round" stroke-linejoin="round" stroke-width="1"/></g><g id="Graphic_20"><text fill="#000" transform="translate(-155.36807 -353.40437)"><tspan x="0" y="15" fill="#000" font-family="Helvetica Neue" font-size="16">state: 01</tspan></text></g><g id="Line_19"><line x1="-194.64" x2="-52.713" y1="-329.85" y2="-329.85" stroke="#000" stroke-linecap="round" stroke-linejoin="round" stroke-width="1"/></g><g id="Graphic_29"><circle cx="-409.118" cy="0" r="85.04" fill="#fff"/><circle cx="-409.118" cy="0" r="85.04" stroke="gray" stroke-linecap="round" stroke-linejoin="round" stroke-width="1"/></g><g id="Graphic_28"><text fill="#000" transform="translate(-440.24997 -69.93979)"><tspan x="0" y="15" fill="#000" font-family="Helvetica Neue" font-size="16">state: 10</tspan></text></g><g id="Line_27"><line x1="-479.522" x2="-337.594" y1="-46.385" y2="-46.385" stroke="#000" stroke-linecap="round" stroke-linejoin="round" stroke-width="1"/></g><g id="Graphic_25"><circle cx="-124.236" cy="0" r="85.04" fill="#fff"/><circle cx="-124.236" cy="0" r="85.04" stroke="gray" stroke-linecap="round" stroke-linejoin="round" stroke-width="1"/></g><g id="Graphic_24"><text fill="#000" transform="translate(-155.36807 -69.93979)"><tspan x="0" y="15" fill="#000" font-family="Helvetica Neue" font-size="16">state: 11</tspan></text></g><g id="Line_23"><line x1="-194.64" x2="-52.713" y1="-46.385" y2="-46.385" stroke="#000" stroke-linecap="round" stroke-linejoin="round" stroke-width="1"/></g><g id="Line_32"><path stroke="#000" stroke-linecap="round" stroke-linejoin="round" stroke-width="1" marker-end="url(#FilledArrow_Marker)" d="M -469.24974 -223.33272 C -469.24974 -223.33272 -519.69925 -176.6571 -526.7557 -113.38583 C -532.1204 -65.28359 -510.4866 -24.78576 -499.805 -8.132196"/></g><g id="Graphic_35"><rect width="25.392" height="28.448" x="-516.282" y="-193.44" fill="#fff"/><text fill="#000" transform="translate(-511.282 -188.4401)"><tspan x="0" y="15" fill="#000" font-family="Helvetica Neue" font-size="16">fill</tspan></text></g><g id="Graphic_36"><text fill="#000" transform="translate(-487.73994 -17.677166)"><tspan x="0" y="15" fill="#000" font-family="Helvetica Neue" font-size="16">notify</tspan> <tspan x="5.328" y="33.448" fill="#000" font-family="Helvetica Neue" font-size="16">sink</tspan></text></g><g id="Line_37"><line x1="-209.275" x2="-314.178" y1="0" y2="0" stroke="#000" stroke-linecap="round" stroke-linejoin="round" stroke-width="1" marker-end="url(#FilledArrow_Marker)"/></g><g id="Graphic_38"><rect width="45.856" height="28.448" x="-289.198" y="-14.224" fill="#fff"/><text fill="#000" transform="translate(-284.19766 -9.223999)"><tspan x="0" y="15" fill="#000" font-family="Helvetica Neue" font-size="16">drain</tspan></text></g><g id="Graphic_39"><text fill="#000" transform="translate(-378.8021 -17.677166)"><tspan x="4.448" y="15" fill="#000" font-family="Helvetica Neue" font-size="16">notify</tspan> <tspan x="0" y="33.448" fill="#000" font-family="Helvetica Neue" font-size="16">source</tspan></text></g><g id="Line_40"><path stroke="#000" stroke-linecap="round" stroke-linejoin="round" stroke-width="1" marker-end="url(#FilledArrow_Marker)" d="M -494.1573 -283.46457 C -504.0785 -277.79528 -549.43285 -289.13387 -543.76356 -328.8497 C -538.83504 -363.37608 -491.06114 -367.8409 -474.40175 -352.05408"/></g><g id="Graphic_41"><rect width="45.28" height="28.448" x="-535.57" y="-373.671" fill="#fff"/><text fill="#000" transform="translate(-530.5701 -368.6705)"><tspan x="0" y="15" fill="#000" font-family="Helvetica Neue" font-size="16">push</tspan></text></g><g id="Line_43"><line x1="-209.275" x2="-314.178" y1="-283.465" y2="-283.465" stroke="#000" stroke-linecap="round" stroke-linejoin="round" stroke-width="1" marker-end="url(#FilledArrow_Marker)"/></g><g id="Graphic_42"><rect width="45.856" height="28.448" x="-289.198" y="-297.689" fill="#fff"/><text fill="#000" transform="translate(-284.19766 -292.68857)"><tspan x="0" y="15" fill="#000" font-family="Helvetica Neue" font-size="16">drain</tspan></text></g><g id="Graphic_44"><text fill="#000" transform="translate(-380.0234 -306.81103)"><tspan x="4.448" y="15" fill="#000" font-family="Helvetica Neue" font-size="16">notify</tspan> <tspan x="0" y="33.448" fill="#000" font-family="Helvetica Neue" font-size="16">source</tspan></text></g><g id="Line_46"><path stroke="#000" stroke-linecap="round" stroke-linejoin="round" stroke-width="1" marker-end="url(#FilledArrow_Marker)" d="M -64.10414 -223.33272 C -64.10414 -223.33272 -6.5680026 -172.59396 .488423 -107.71654 C 5.893066 -58.02576 -20.261766 -17.937534 -32.802662 -1.892444"/></g><g id="Graphic_45"><rect width="25.392" height="28.448" x="-39.197" y="-192.549" fill="#fff"/><text fill="#000" transform="translate(-34.197273 -187.54943)"><tspan x="0" y="15" fill="#000" font-family="Helvetica Neue" font-size="16">fill</tspan></text></g><g id="Graphic_47"><text fill="#000" transform="translate(-83.60462 -17.677166)"><tspan x="0" y="15" fill="#000" font-family="Helvetica Neue" font-size="16">notify</tspan> <tspan x="5.328" y="33.448" fill="#000" font-family="Helvetica Neue" font-size="16">sink</tspan></text></g><g id="Graphic_48"><text fill="#000" transform="translate(-487.73994 -295.47245)"><tspan x="0" y="15" fill="#000" font-family="Helvetica Neue" font-size="16">return</tspan></text></g><g id="Line_50"><path stroke="#000" stroke-linecap="round" stroke-linejoin="round" stroke-width="1" marker-end="url(#FilledArrow_Marker)" d="M -39.196617 -277.79528 C -10.85016 -260.7874 34.50417 -306.14174 11.827006 -345.8268 C -7.111971 -378.97 -49.776455 -368.61644 -61.32455 -353.09593"/></g><g id="Graphic_49"><rect width="45.28" height="46.896" x="-31.599" y="-375.273" fill="#fff"/><text fill="#000" transform="translate(-26.59873 -370.2727)"><tspan x="0" y="15" fill="#000" font-family="Helvetica Neue" font-size="16">push</tspan> <tspan x="4.896" y="33.448" fill="#000" font-family="Helvetica Neue" font-size="16">pull</tspan></text></g><g id="Graphic_51"><text fill="#000" transform="translate(-86.27662 -295.47245)"><tspan x="0" y="15" fill="#000" font-family="Helvetica Neue" font-size="16">return</tspan></text></g><g id="Line_52"><line x1="-348.986" x2="-191.398" y1="-60.132" y2="-216.363" stroke="#000" stroke-linecap="round" stroke-linejoin="round" stroke-width="1" marker-end="url(#FilledArrow_Marker)"/></g><g id="Graphic_53"><rect width="45.28" height="46.896" x="-283.426" y="-171.021" fill="#fff"/><text fill="#000" transform="translate(-278.426 -166.02052)"><tspan x="0" y="15" fill="#000" font-family="Helvetica Neue" font-size="16">push</tspan> <tspan x="4.896" y="33.448" fill="#000" font-family="Helvetica Neue" font-size="16">pull</tspan></text></g><g id="Graphic_54"><text fill="#000" transform="translate(-385.6927 -46.125164)"><tspan x="0" y="15" fill="#000" font-family="Helvetica Neue" font-size="16">move</tspan></text></g><g id="Line_55"><line x1="-184.368" x2="-230.621" y1="-60.132" y2="-106.385" stroke="#000" stroke-linecap="round" stroke-linejoin="round" stroke-width="1" marker-end="url(#FilledArrow_Marker)"/></g><g id="Line_57"><line x1="-311.147" x2="-282.725" y1="-154.694" y2="-187.554" stroke="#000" stroke-linecap="round" stroke-linejoin="round" stroke-width="1"/></g><g id="Graphic_58"><text fill="#000" transform="translate(-419.70844 -233.11024)"><tspan x="0" y="15" fill="#000" font-family="Helvetica Neue" font-size="16">sink wait</tspan></text></g><g id="Line_59"><line x1="-348.986" x2="-302.732" y1="-223.333" y2="-177.079" stroke="#000" stroke-linecap="round" stroke-linejoin="round" stroke-width="1" marker-end="url(#FilledArrow_Marker)"/></g><g id="Line_60"><line x1="-248.785" x2="-220.363" y1="-98.001" y2="-130.861" stroke="#000" stroke-linecap="round" stroke-linejoin="round" stroke-width="1"/></g><g id="Graphic_61"><text fill="#000" transform="translate(-187.26749 -40.35433)"><tspan x="0" y="15" fill="#000" font-family="Helvetica Neue" font-size="16">source wait</tspan></text></g><g id="Graphic_62"><rect width="35.488" height="28.448" x="-344.67" y="-215.496" fill="#fff"/><text fill="#000" transform="translate(-339.66963 -210.49632)"><tspan x="0" y="15" fill="#000" font-family="Helvetica Neue" font-size="16">pull</tspan></text></g><g id="Graphic_63"><rect width="45.28" height="28.448" x="-230.956" y="-98.304" fill="#fff"/><text fill="#000" transform="translate(-225.9556 -93.30361)"><tspan x="0" y="15" fill="#000" font-family="Helvetica Neue" font-size="16">push</tspan></text></g><g id="Line_67"><path stroke="#000" stroke-linecap="round" stroke-linejoin="round" stroke-width="1" marker-end="url(#FilledArrow_Marker)" d="M -124.23599 85.03941 C -118.5667 107.71654 -152.58245 136.063 -180.9289 124.72441 C -203.6393 115.64026 -200.87678 81.08322 -191.90258 66.55354"/></g><g id="Graphic_66"><rect width="35.488" height="28.448" x="-164.599" y="107.837" fill="#fff"/><text fill="#000" transform="translate(-159.59886 112.83672)"><tspan x="0" y="15" fill="#000" font-family="Helvetica Neue" font-size="16">pull</tspan></text></g><g id="Graphic_68"><text fill="#000" transform="translate(-147.58245 61.591374)"><tspan x="0" y="15" fill="#000" font-family="Helvetica Neue" font-size="16">return</tspan></text></g><g id="Line_73"><path stroke="#ff2600" stroke-linecap="round" stroke-linejoin="round" stroke-width="1" marker-end="url(#FilledArrow_Marker_2)" d="M -409.1179 -368.504 C -413.36986 -379.84253 -404.79153 -419.52757 -362.34623 -413.8583 C -326.48327 -409.06817 -326.9395 -363.8054 -340.4026 -348.53674"/></g><g id="Graphic_72"><rect width="41.712" height="28.448" x="-353.533" y="-398.249" fill="#fff"/><text fill="#ff2600" transform="translate(-348.5325 -393.2491)"><tspan x="0" y="15" fill="#ff2600" font-family="Helvetica Neue" font-size="16">stop</tspan></text></g><g id="Line_75"><path stroke="#ff2600" stroke-linecap="round" stroke-linejoin="round" stroke-width="1" marker-end="url(#FilledArrow_Marker_3)" d="M -348.98604 60.13185 C -339.66907 68.0315 -322.6612 107.71654 -353.5325 124.72441 C -379.3209 138.93197 -403.77977 113.57851 -408.65636 94.93036"/></g><g id="Graphic_74"><rect width="41.712" height="28.448" x="-380.015" y="113" fill="#fff"/><text fill="#ff2600" transform="translate(-375.0154 117.99999)"><tspan x="0" y="15" fill="#ff2600" font-family="Helvetica Neue" font-size="16">stop</tspan></text></g><g id="Graphic_76"><text fill="#ff2600" transform="translate(-383.8714 22.007874)"><tspan x="0" y="15" fill="#ff2600" font-family="Helvetica Neue" font-size="16">notify</tspan> <tspan x="5.328" y="33.448" fill="#ff2600" font-family="Helvetica Neue" font-size="16">sink</tspan></text></g><g id="Graphic_77"><text fill="#ff2600" transform="translate(-452.3256 58.09487)"><tspan x="0" y="15" fill="#ff2600" font-family="Helvetica Neue" font-size="16">deschedule</tspan></text></g><g id="Line_79"><path stroke="#ff2600" stroke-linecap="round" stroke-linejoin="round" stroke-width="1" marker-end="url(#FilledArrow_Marker_3)" d="M -124.23599 -85.03941 C -128.48796 -96.37796 -118.93306 -138.29335 -76.48776 -132.62406 C -40.546043 -127.82343 -41.78345 -80.77294 -55.54781 -65.11305"/></g><g id="Graphic_78"><rect width="41.712" height="28.448" x="-68.094" y="-116.307" fill="#fff"/><text fill="#ff2600" transform="translate(-63.09417 -111.30726)"><tspan x="0" y="15" fill="#ff2600" font-family="Helvetica Neue" font-size="16">stop</tspan></text></g><g id="Line_81"><path stroke="#ff2600" stroke-linecap="round" stroke-linejoin="round" stroke-width="1" marker-end="url(#FilledArrow_Marker_3)" d="M -124.23599 -368.504 C -124.23599 -385.5118 -147.83575 -413.8583 -175.25961 -402.5197 C -196.77556 -393.6238 -198.4889 -363.78945 -191.67554 -350.27078"/></g><g id="Graphic_80"><rect width="41.712" height="28.448" x="-211.545" y="-402.057" fill="#fff"/><text fill="#ff2600" transform="translate(-206.54521 -397.05716)"><tspan x="0" y="15" fill="#ff2600" font-family="Helvetica Neue" font-size="16">stop</tspan></text></g><g id="Graphic_83"><circle cx="-265.968" cy="-481.89" r="85.04" fill="#fff"/><circle cx="-265.968" cy="-481.89" r="85.04" stroke="#ff2600" stroke-linecap="round" stroke-linejoin="round" stroke-width="1"/></g><g id="Graphic_85"><text fill="#ff2600" transform="translate(-306.28436 -551.8296)"><tspan x="0" y="15" fill="#ff2600" font-family="Helvetica Neue" font-size="16">state: done</tspan></text></g><g id="Line_84"><line x1="-336.372" x2="-194.445" y1="-528.275" y2="-528.275" stroke="#ff2600" stroke-linecap="round" stroke-linejoin="round" stroke-width="1"/></g><g id="Graphic_82"><text fill="#ff2600" transform="translate(-306.3226 -431.53545)"><tspan x="0" y="15" fill="#ff2600" font-family="Helvetica Neue" font-size="16">deschedule</tspan></text></g><g id="Line_91"><path stroke="#ff2600" stroke-linecap="round" stroke-linejoin="round" stroke-width="1" marker-end="url(#FilledArrow_Marker_3)" d="M -348.98604 -223.33272 C -292.841 -242.35784 -284.02885 -341.84697 -269.37375 -387.5594"/></g><g id="Graphic_90"><rect width="35.488" height="28.448" x="-305.294" y="-329.739" fill="#fff"/><text fill="#ff2600" transform="translate(-300.29382 -324.73868)"><tspan x="0" y="15" fill="#ff2600" font-family="Helvetica Neue" font-size="16">pull</tspan></text></g><g id="Graphic_92"><text fill="#ff2600" transform="translate(-380.0234 -250.11812)"><tspan x="0" y="15" fill="#ff2600" font-family="Helvetica Neue" font-size="16">noop</tspan></text></g><g id="Line_94"><path stroke="#ff2600" stroke-linecap="round" stroke-linejoin="round" stroke-width="1" marker-end="url(#FilledArrow_Marker_3)" d="M -209.2754 -283.46457 C -240.5838 -299.1188 -257.48394 -348.3924 -264.3963 -387.08016"/></g><g id="Graphic_93"><rect width="45.856" height="28.448" x="-274.317" y="-353.569" fill="#fff"/><text fill="#ff2600" transform="translate(-269.31675 -348.56913)"><tspan x="0" y="15" fill="#ff2600" font-family="Helvetica Neue" font-size="16">drain</tspan></text></g><g id="Graphic_95"><text fill="#ff2600" transform="translate(-133.80991 -510.9055)"><tspan x="0" y="15" fill="#ff2600" font-family="Helvetica Neue" font-size="16">Note: Currently, only source invokes stop event.</tspan> <tspan x="0" y="33.448" fill="#ff2600" font-family="Helvetica Neue" font-size="16">All of the stop transitions are the same</tspan> <tspan x="0" y="51.896" fill="#ff2600" font-family="Helvetica Neue" font-size="16"> - notify sink</tspan> <tspan x="0" y="70.344" fill="#ff2600" font-family="Helvetica Neue" font-size="16"> - transition to stop state</tspan> <tspan x="0" y="88.792" fill="#ff2600" font-family="Helvetica Neue" font-size="16"> - deschedule</tspan></text></g></g></g></svg>