<svg xmlns="http://www.w3.org/2000/svg" xmlns:xlink="http://www.w3.org/1999/xlink" width="1264" height="886" contentStyleType="text/css" preserveAspectRatio="none" style="width:1264px;height:886px;background:#fff" version="1.1" viewBox="0 0 1264 886" zoomAndPan="magnify"><g><text x="519.367" y="22.995" fill="#000" font-family="sans-serif" font-size="14" font-weight="bold" lengthAdjust="spacing" textLength="211.415">Local Query State Machine</text><ellipse cx="799.39" cy="53.297" fill="#222" rx="10" ry="10" style="stroke:#222;stroke-width:1"/><g id="uninitialized"><rect width="354.981" height="78.203" x="621.9" y="124.297" fill="#F1F1F1" rx="12.5" ry="12.5" style="stroke:#181818;stroke-width:.5"/><line style="stroke:#181818;stroke-width:.5" x1="621.9" x2="976.88" y1="150.594" y2="150.594"/><text x="756.898" y="142.292" fill="#000" font-family="sans-serif" font-size="14" lengthAdjust="spacing" textLength="84.984">uninitialized</text><text x="626.9" y="166.732" fill="#000" font-family="sans-serif" font-size="12" lengthAdjust="spacing" textLength="334.981">The initial query state from a C.41-noncompliant query.</text><text x="626.9" y="180.701" fill="#000" font-family="sans-serif" font-size="12" lengthAdjust="spacing" textLength="330.744">The &quot;ready&quot; event is only necessary to compensate for</text><text x="626.9" y="194.67" fill="#000" font-family="sans-serif" font-size="12" lengthAdjust="spacing" textLength="160.371">the existence of this state.</text></g><path fill="#F1F1F1" d="M345.26,279.4969 L701.5217,279.4969 A12.5,12.5 0 0 1 714.0217,291.9969 L714.0217,366.6688 L332.76,366.6688 L332.76,291.9969 A12.5,12.5 0 0 1 345.26,279.4969" style="stroke:#f1f1f1;stroke-width:1"/><rect width="381.262" height="318.172" x="332.76" y="279.497" fill="none" rx="12.5" ry="12.5" style="stroke:#181818;stroke-width:.5"/><line style="stroke:#181818;stroke-width:.5" x1="332.76" x2="714.022" y1="366.669" y2="366.669"/><line style="stroke:#181818;stroke-width:.5" x1="332.76" x2="714.022" y1="305.794" y2="305.794"/><text x="467.904" y="297.492" fill="#000" font-family="sans-serif" font-size="14" lengthAdjust="spacing" textLength="110.975">everything_else</text><text x="337.76" y="316.932" fill="#000" font-family="sans-serif" font-size="12" lengthAdjust="spacing" textLength="345.352">This state represents an initialized query that has not yet</text><text x="337.76" y="330.901" fill="#000" font-family="sans-serif" font-size="12" lengthAdjust="spacing" textLength="353.525">reached a final state. Its internal state is not yet modelled,</text><text x="337.76" y="344.87" fill="#000" font-family="sans-serif" font-size="12" lengthAdjust="spacing" textLength="356.262">so the inner state machine should be treated as illustrative</text><text x="337.76" y="358.839" fill="#000" font-family="sans-serif" font-size="12" lengthAdjust="spacing" textLength="144.316">only and not normative.</text><ellipse cx="392.64" cy="387.669" fill="#222" rx="10" ry="10" style="stroke:#222;stroke-width:1"/><g id="everything_else.initialized"><rect width="87.238" height="50" x="349.02" y="434.669" fill="#F1F1F1" rx="12.5" ry="12.5" style="stroke:#181818;stroke-width:.5"/><line style="stroke:#181818;stroke-width:.5" x1="349.02" x2="436.258" y1="460.966" y2="460.966"/><text x="359.02" y="452.664" fill="#000" font-family="sans-serif" font-size="14" lengthAdjust="spacing" textLength="67.238">initialized</text></g><g id="everything_else.processing"><rect width="95.756" height="50" x="344.76" y="537.669" fill="#F1F1F1" rx="12.5" ry="12.5" style="stroke:#181818;stroke-width:.5"/><line style="stroke:#181818;stroke-width:.5" x1="344.76" x2="440.516" y1="563.966" y2="563.966"/><text x="354.76" y="555.664" fill="#000" font-family="sans-serif" font-size="14" lengthAdjust="spacing" textLength="75.756">processing</text></g><g id="everything_else.in_progress"><rect width="100.814" height="50" x="514.23" y="537.669" fill="#F1F1F1" rx="12.5" ry="12.5" style="stroke:#181818;stroke-width:.5"/><line style="stroke:#181818;stroke-width:.5" x1="514.23" x2="615.044" y1="563.966" y2="563.966"/><text x="524.23" y="555.664" fill="#000" font-family="sans-serif" font-size="14" lengthAdjust="spacing" textLength="80.814">in_progress</text></g><g id="link_*start*everything_else_initialized"><path id="*start*everything_else-to-initialized" fill="none" d="M392.64,398.1088 C392.64,407.3688 392.64,415.8588 392.64,428.3488" style="stroke:#181818;stroke-width:1"/><polygon fill="#181818" points="392.64 434.349 396.64 425.349 392.64 429.349 388.64 425.349 392.64 434.349" style="stroke:#181818;stroke-width:1"/></g><g id="link_initialized_processing"><path id="initialized-to-processing" fill="none" d="M392.64,485.1188 C392.64,500.9988 392.64,515.6088 392.64,531.4488" style="stroke:#181818;stroke-width:1"/><polygon fill="#181818" points="392.64 537.449 396.64 528.449 392.64 532.449 388.64 528.449 392.64 537.449" style="stroke:#181818;stroke-width:1"/><text x="393.64" y="515.736" fill="#000" font-family="sans-serif" font-size="13" lengthAdjust="spacing" textLength="44.637">submit</text></g><g id="link_processing_in_progress"><path id="processing-to-in_progress" fill="none" d="M441.01,562.6688 C463.76,562.6688 484.89,562.6688 507.93,562.6688" style="stroke:#181818;stroke-width:1"/><polygon fill="#181818" points="513.93 562.669 504.93 558.669 508.93 562.669 504.93 566.669 513.93 562.669" style="stroke:#181818;stroke-width:1"/><text x="450.37" y="555.736" fill="#000" font-family="sans-serif" font-size="13" lengthAdjust="spacing" textLength="54.526">suspend</text></g><g id="link_processing_in_progress"><path id="processing-backto-in_progress" fill="none" d="M446.6386,581.323 C451.1686,582.463 449.92,581.9688 454.37,582.6688 C474.57,585.8588 480.16,585.7388 500.37,582.6688 C504.76,581.9988 509.27,581.0888 513.75,580.0288" style="stroke:#181818;stroke-width:1"/><polygon fill="#181818" points="440.82 579.859 448.572 585.934 445.669 581.079 450.524 578.176 440.82 579.859" style="stroke:#181818;stroke-width:1"/><text x="455.37" y="578.736" fill="#000" font-family="sans-serif" font-size="13" lengthAdjust="spacing" textLength="44.637">submit</text></g><g id="aborted"><rect width="198.781" height="64.234" x="7" y="674.667" fill="#F1F1F1" rx="12.5" ry="12.5" style="stroke:#181818;stroke-width:.5"/><line style="stroke:#181818;stroke-width:.5" x1="7" x2="205.781" y1="700.964" y2="700.964"/><text x="79.002" y="692.662" fill="#000" font-family="sans-serif" font-size="14" lengthAdjust="spacing" textLength="54.776">aborted</text><text x="12" y="717.102" fill="#000" font-family="sans-serif" font-size="12" lengthAdjust="spacing" textLength="173.56">The query failed to complete</text><text x="12" y="731.071" fill="#000" font-family="sans-serif" font-size="12" lengthAdjust="spacing" textLength="178.781">because of a resource failure.</text></g><g id="cancelled"><rect width="187.56" height="64.234" x="795.61" y="674.667" fill="#F1F1F1" rx="12.5" ry="12.5" style="stroke:#181818;stroke-width:.5"/><line style="stroke:#181818;stroke-width:.5" x1="795.61" x2="983.17" y1="700.964" y2="700.964"/><text x="856.021" y="692.662" fill="#000" font-family="sans-serif" font-size="14" lengthAdjust="spacing" textLength="66.739">cancelled</text><text x="800.61" y="717.102" fill="#000" font-family="sans-serif" font-size="12" lengthAdjust="spacing" textLength="167.56">The query was cancelled by</text><text x="800.61" y="731.071" fill="#000" font-family="sans-serif" font-size="12" lengthAdjust="spacing" textLength="166.957">the user before completion.</text></g><g id="error"><rect width="191.82" height="64.234" x="647.48" y="815.907" fill="#F1F1F1" rx="12.5" ry="12.5" style="stroke:#181818;stroke-width:.5"/><line style="stroke:#181818;stroke-width:.5" x1="647.48" x2="839.3" y1="842.204" y2="842.204"/><text x="726.167" y="833.902" fill="#000" font-family="sans-serif" font-size="14" lengthAdjust="spacing" textLength="34.446">error</text><text x="652.48" y="858.342" fill="#000" font-family="sans-serif" font-size="12" lengthAdjust="spacing" textLength="171.82">The state machine was used</text><text x="652.48" y="872.311" fill="#000" font-family="sans-serif" font-size="12" lengthAdjust="spacing" textLength="157.424">incorrectly by query code.</text></g><g id="success"><rect width="199.672" height="64.234" x="400.55" y="674.667" fill="#F1F1F1" rx="12.5" ry="12.5" style="stroke:#181818;stroke-width:.5"/><line style="stroke:#181818;stroke-width:.5" x1="400.55" x2="600.222" y1="700.964" y2="700.964"/><text x="473.005" y="692.662" fill="#000" font-family="sans-serif" font-size="14" lengthAdjust="spacing" textLength="54.763">success</text><text x="405.55" y="717.102" fill="#000" font-family="sans-serif" font-size="12" lengthAdjust="spacing" textLength="179.672">The query completed and has</text><text x="405.55" y="731.071" fill="#000" font-family="sans-serif" font-size="12" lengthAdjust="spacing" textLength="136.201">returned all its results.</text></g><g id="link_*start*_uninitialized"><path id="*start*-to-uninitialized" fill="none" d="M799.39,63.5069 C799.39,76.8869 799.39,96.4669 799.39,118.2569" style="stroke:#181818;stroke-width:1"/><polygon fill="#181818" points="799.39 124.257 803.39 115.257 799.39 119.257 795.39 115.257 799.39 124.257" style="stroke:#181818;stroke-width:1"/></g><g id="link_uninitialized_everything_else"><path id="uninitialized-to-everything_else" fill="none" d="M760.43,202.9569 C739.48,223.6969 716.3541,246.5858 687.6641,274.9858" style="stroke:#181818;stroke-width:1"/><polygon fill="#181818" points="683.4 279.207 692.61 275.718 686.953 275.689 686.982 270.033 683.4 279.207" style="stroke:#181818;stroke-width:1"/><text x="725.39" y="245.564" fill="#000" font-family="sans-serif" font-size="13" lengthAdjust="spacing" textLength="37.254">ready</text></g><g id="link_uninitialized_aborted"><path id="uninitialized-to-aborted" fill="none" d="M621.43,185.8969 C492,204.7869 330.82,236.0469 279.39,279.4969 C154.32,385.1769 119.315,588.9973 110.055,668.3973" style="stroke:#181818;stroke-width:1"/><polygon fill="#181818" points="109.36 674.357 114.376 665.881 109.939 669.39 106.43 664.954 109.36 674.357" style="stroke:#181818;stroke-width:1"/><text x="280.39" y="443.154" fill="#000" font-family="sans-serif" font-size="13" lengthAdjust="spacing" textLength="34.614">abort</text></g><g id="link_uninitialized_cancelled"><path id="uninitialized-to-cancelled" fill="none" d="M805.79,202.8969 C822.76,304.9569 867.6659,575.0981 883.1959,668.4981" style="stroke:#181818;stroke-width:1"/><polygon fill="#181818" points="884.18 674.417 886.65 664.883 883.36 669.485 878.758 666.195 884.18 674.417" style="stroke:#181818;stroke-width:1"/><text x="871.39" y="443.154" fill="#000" font-family="sans-serif" font-size="13" lengthAdjust="spacing" textLength="42.11">cancel</text></g><g id="link_uninitialized_error"><path id="uninitialized-to-error" fill="none" d="M850.72,202.8669 C972.23,298.5669 1257.15,553.0169 1117.39,738.9069 C1083.98,783.3369 944.9922,814.2841 845.6822,831.4641" style="stroke:#181818;stroke-width:1"/><polygon fill="#181818" points="839.77 832.487 849.32 834.894 844.697 831.635 847.956 827.011 839.77 832.487" style="stroke:#181818;stroke-width:1"/><text x="1155.39" y="640.734" fill="#000" font-family="sans-serif" font-size="13" lengthAdjust="spacing" textLength="35.052">finish</text></g><g id="link_everything_else_everything_else"><path id="everything_else-to-everything_else" fill="none" d="M714.34,407.4169 C735.41,413.3369 749.02,423.7269 749.02,438.5869 C749.02,453.4369 741.1863,462.2039 720.1163,468.1239" style="stroke:#181818;stroke-width:1"/><polygon fill="#181818" points="714.34 469.747 724.087 471.163 719.154 468.394 721.923 463.462 714.34 469.747" style="stroke:#181818;stroke-width:1"/><text x="755.02" y="443.154" fill="#000" font-family="sans-serif" font-size="13" lengthAdjust="spacing" textLength="37.254">ready</text></g><g id="link_everything_else_success"><path id="everything_else-to-success" fill="none" d="M509.71,597.8969 C507.2,626.9269 505.3567,648.3192 503.6367,668.2192" style="stroke:#181818;stroke-width:1"/><polygon fill="#181818" points="503.12 674.197 507.88 665.575 503.551 669.215 499.91 664.886 503.12 674.197" style="stroke:#181818;stroke-width:1"/><text x="507.39" y="640.734" fill="#000" font-family="sans-serif" font-size="13" lengthAdjust="spacing" textLength="35.052">finish</text></g><g id="link_everything_else_aborted"><path id="everything_else-to-aborted" fill="none" d="M332.49,573.7569 C296.06,598.0669 257.89,622.6669 221.39,644.6669 C204.54,654.8269 191.1701,662.3246 173.8501,671.5146" style="stroke:#181818;stroke-width:1"/><polygon fill="#181818" points="168.55 674.327 178.375 673.642 172.967 671.983 174.625 666.575 168.55 674.327" style="stroke:#181818;stroke-width:1"/><text x="248.39" y="640.734" fill="#000" font-family="sans-serif" font-size="13" lengthAdjust="spacing" textLength="34.614">abort</text></g><g id="link_everything_else_cancelled"><path id="everything_else-to-cancelled" fill="none" d="M714.43,590.7869 C739.35,609.3469 764.77,627.7269 789.39,644.6669 C804.06,654.7569 815.2579,661.9721 830.3879,671.2021" style="stroke:#181818;stroke-width:1"/><polygon fill="#181818" points="835.51 674.327 829.91 666.225 831.242 671.723 825.744 673.054 835.51 674.327" style="stroke:#181818;stroke-width:1"/><text x="790.39" y="640.734" fill="#000" font-family="sans-serif" font-size="13" lengthAdjust="spacing" textLength="42.11">cancel</text></g><g id="link_success_success"><path id="success-to-success" fill="none" d="M600.65,694.0669 C620.82,695.4769 635.23,699.7169 635.23,706.7869 C635.23,713.8569 626.8056,717.6814 606.6356,719.0814" style="stroke:#181818;stroke-width:1"/><polygon fill="#181818" points="600.65 719.497 609.905 722.864 605.638 719.151 609.351 714.883 600.65 719.497" style="stroke:#181818;stroke-width:1"/><text x="641.23" y="711.354" fill="#000" font-family="sans-serif" font-size="13" lengthAdjust="spacing" textLength="130.946">ready, finish, cancel</text></g><g id="link_success_error"><path id="success-to-error" fill="none" d="M555.53,739.3769 C595.3,762.1669 643.5435,789.8148 683.2635,812.5648" style="stroke:#181818;stroke-width:1"/><polygon fill="#181818" points="688.47 815.547 682.648 807.603 684.131 813.062 678.672 814.545 688.47 815.547" style="stroke:#181818;stroke-width:1"/><text x="637.39" y="781.974" fill="#000" font-family="sans-serif" font-size="13" lengthAdjust="spacing" textLength="34.614">abort</text></g><g id="link_aborted_aborted"><path id="aborted-to-aborted" fill="none" d="M206.02,694.0469 C226.28,695.4369 240.78,699.6869 240.78,706.7869 C240.78,713.8869 232.2661,717.7291 212.0061,719.1091" style="stroke:#181818;stroke-width:1"/><polygon fill="#181818" points="206.02 719.517 215.271 722.896 211.008 719.177 214.727 714.914 206.02 719.517" style="stroke:#181818;stroke-width:1"/><text x="246.78" y="711.354" fill="#000" font-family="sans-serif" font-size="13" lengthAdjust="spacing" textLength="130.508">ready, abort, cancel</text></g><g id="link_aborted_error"><path id="aborted-to-error" fill="none" d="M206.27,729.6169 C326.81,755.9669 522.2084,798.6756 641.1584,824.6756" style="stroke:#181818;stroke-width:1"/><polygon fill="#181818" points="647.02 825.957 639.082 820.127 642.135 824.889 637.373 827.943 647.02 825.957" style="stroke:#181818;stroke-width:1"/><text x="463.39" y="781.974" fill="#000" font-family="sans-serif" font-size="13" lengthAdjust="spacing" textLength="35.052">finish</text></g><g id="link_cancelled_cancelled"><path id="cancelled-to-cancelled" fill="none" d="M983.44,693.9569 C1003.59,695.2369 1018.17,699.5069 1018.17,706.7869 C1018.17,714.0569 1009.5779,717.9565 989.4279,719.2365" style="stroke:#181818;stroke-width:1"/><polygon fill="#181818" points="983.44 719.617 992.676 723.038 988.43 719.3 992.168 715.054 983.44 719.617" style="stroke:#181818;stroke-width:1"/><text x="1024.17" y="711.354" fill="#000" font-family="sans-serif" font-size="13" lengthAdjust="spacing" textLength="87.629">ready, cancel</text></g><g id="link_cancelled_error"><path id="cancelled-to-error" fill="none" d="M856.26,739.3769 C832.37,762.1669 804.5924,788.6564 780.7324,811.4064" style="stroke:#181818;stroke-width:1"/><polygon fill="#181818" points="776.39 815.547 785.664 812.231 780.009 812.096 780.143 806.441 776.39 815.547" style="stroke:#181818;stroke-width:1"/><text x="825.39" y="781.974" fill="#000" font-family="sans-serif" font-size="13" lengthAdjust="spacing" textLength="77.93">finish, abort</text></g><g id="link_error_error"><path id="error-to-error" fill="none" d="M839.58,835.2269 C859.76,836.5469 874.3,840.8169 874.3,848.0169 C874.3,855.2269 865.747,859.0923 845.567,860.4223" style="stroke:#181818;stroke-width:1"/><polygon fill="#181818" points="839.58 860.817 848.824 864.216 844.569 860.488 848.298 856.234 839.58 860.817" style="stroke:#181818;stroke-width:1"/><text x="880.3" y="852.584" fill="#000" font-family="sans-serif" font-size="13" lengthAdjust="spacing" textLength="173.824">ready, finish, abort, cancel</text></g></g></svg>